<svg width="313" height="313" viewBox="0 0 313 313" fill="none" xmlns="http://www.w3.org/2000/svg">
<path d="M260.537 92.1571V206.267C251.722 201.3 241.474 199.311 231.382 200.608C221.29 201.904 211.919 206.414 204.722 213.437C197.524 220.461 192.903 229.605 191.575 239.453C190.246 249.301 192.285 259.301 197.374 267.903C202.464 276.504 210.32 283.227 219.724 287.028C229.128 290.829 239.554 291.496 249.386 288.925C259.218 286.354 267.906 280.689 274.102 272.809C280.298 264.929 283.657 255.273 283.656 245.341V18.0694C283.66 15.1735 282.949 12.3193 281.584 9.7478C280.219 7.17633 278.24 4.9631 275.815 3.295C273.389 1.62689 270.587 0.552903 267.646 0.163725C264.706 -0.225453 261.712 0.0816087 258.919 1.05898L110.955 52.6316C107.368 53.8865 104.266 56.192 102.073 59.2327C99.8793 62.2734 98.702 65.901 98.7017 69.6194V228.804C89.8875 223.838 79.6406 221.849 69.5498 223.145C59.459 224.441 50.0883 228.949 42.8907 235.971C35.693 242.993 31.0707 252.136 29.7405 261.982C28.4102 271.829 30.4463 281.828 35.5331 290.431C40.6199 299.033 48.4731 305.757 57.875 309.56C67.2769 313.364 77.7021 314.034 87.534 311.467C97.3659 308.9 106.055 303.239 112.254 295.362C118.453 287.485 121.816 277.833 121.821 267.901V140.504L260.537 92.1796V92.1571Z" fill="#1E1E1E"/>
</svg>
